C:/Program Files/Krita (x64)/bin/ffmpeg.exe -hide_banner -y -y -r 24 -start_number 0 -start_number_range 1 -i E:/videos/art-jam-2025/rendered animations/frame%04d.png -c:v libopenh264 -b:v 5000k E:/videos/art-jam-2025/rendered animations/5.1juniorNO.mkv
=====================================================
Input #0, image2, from 'E:/videos/art-jam-2025/rendered animations/frame%04d.png':
  Duration: 00:00:01.60, start: 0.000000, bitrate: N/A
  Stream #0:0: Video: png, rgba64be(pc), 1920x1080 [SAR 2834:2834 DAR 16:9], 25 fps, 25 tbr, 25 tbn, 25 tbc
Stream mapping:
  Stream #0:0 -> #0:0 (png (native) -> h264 (libopenh264))
Press [q] to stop, [?] for help
[libopenh264 @ 00000201202e2ec0] Slice count will be set automatically
[libopenh264 @ 00000201202e2ec0] [OpenH264] this = 0x000002012036DEC0, Warning:bEnableFrameSkip = 0,bitrate can't be controlled for RC_QUALITY_MODE,RC_BITRATE_MODE and RC_TIMESTAMP_MODE without enabling skip frame.
Output #0, matroska, to 'E:/videos/art-jam-2025/rendered animations/5.1juniorNO.mkv':
  Metadata:
    encoder         : Lavf58.76.100
  Stream #0:0: Video: h264 (H264 / 0x34363248), yuv420p(tv, progressive), 1920x1080 [SAR 1:1 DAR 16:9], q=2-31, 5000 kb/s, 24 fps, 1k tbn
    Metadata:
      encoder         : Lavc58.134.100 libopenh264
    Side data:
      cpb: bitrate max/min/avg: 5000000/0/5000000 buffer size: 0 vbv_delay: N/A
frame=    1 fps=0.0 q=-0.0 size=       1kB time=00:00:00.00 bitrate=4792.0kbits/s speed=0.00991x    frame=   12 fps=0.0 q=-0.0 size=       1kB time=00:00:00.45 bitrate=  10.4kbits/s speed=0.728x    frame=   29 fps= 25 q=-0.0 size=       1kB time=00:00:01.16 bitrate=   4.1kbits/s speed=1.02x    frame=   40 fps= 27 q=-0.0 Lsize=     290kB time=00:00:01.62 bitrate=1459.5kbits/s speed=1.08x    
video:289kB audio:0kB subtitle:0kB other streams:0kB global headers:0kB muxing overhead: 0.312796%
